<svg id="Layer_1" data-name="Layer 1" xmlns="http://www.w3.org/2000/svg" xmlns:xlink="http://www.w3.org/1999/xlink" viewBox="0 0 1500 1500"><defs><style>.cls-1{fill:url(#linear-gradient);}.cls-2{fill:url(#linear-gradient-2);}</style><linearGradient id="linear-gradient" x1="280.36" y1="952.95" x2="820.21" y2="952.95" gradientUnits="userSpaceOnUse"><stop offset="0" stop-color="#ea3033"/><stop offset="1" stop-color="#faa331"/></linearGradient><linearGradient id="linear-gradient-2" x1="743.68" y1="1328.92" x2="743.68" y2="156.89" xlink:href="#linear-gradient"/></defs><title>Artboard 1</title><path class="cls-1" d="M728.21,867.73c29.49,69,2.88,135.26-59.45,156-32.46,10.83-64.6,10.4-95.42-4.7-30.26-14.81-54.26-33.87-73.11-56.34-32.31-38.51-49.43-87-56.67-141.46-7.13-53.67.71-106.6,14.92-160.88C443,670.5,427,679.89,412.09,690.81c-88.1,64.66-138.3,149.76-131,261.12a384.14,384.14,0,0,0,18,94.66l.07.22C425.34,1328.87,694.86,1228,694.86,1228,955.91,1113.08,728.21,867.73,728.21,867.73Z"/><path class="cls-2" d="M1171.88,776.65c-28.43-110.15-90.26-200.34-171.34-277.4C943.39,444.93,882,395.06,823,342.68c-54.64-48.49-98.11-102.51-85.56-185.79-39,29-77.12,58.29-111.44,91.54C490.73,379.49,504.19,570.78,599.7,697.84c25.43,33.82,56.69,63.21,82.81,96.57C700.2,817,717,841.51,728.21,867.73c0,0,227.71,245.35-33.35,360.23,0,0-269.51,100.91-395.77-181.15,22.68,69.27,65.32,128.59,125.7,177.21,109.68,88.3,236.71,117.23,375,100.31C1035.43,1295.5,1250.16,1079.88,1171.88,776.65Z"/></svg>